<svg width="25" height="18" viewBox="0 0 25 18" fill="none" xmlns="http://www.w3.org/2000/svg">
<path fill-rule="evenodd" clip-rule="evenodd" d="M10.1 0.5H14.9C19.4252 0.5 21.6884 0.5 23.0936 1.74525C24.4988 2.9905 24.5 4.99331 24.5 9C24.5 13.0067 24.5 15.0106 23.0936 16.2547C21.6872 17.4989 19.4252 17.5 14.9 17.5H10.1C5.5748 17.5 3.3116 17.5 1.9064 16.2547C0.5012 15.0095 0.5 13.0067 0.5 9C0.5 4.99331 0.5 2.98944 1.9064 1.74525C3.3128 0.501063 5.5748 0.5 10.1 0.5ZM14 5.8125C14 5.60116 14.0948 5.39847 14.2636 5.24902C14.4324 5.09958 14.6613 5.01562 14.9 5.01562H20.9C21.1387 5.01562 21.3676 5.09958 21.5364 5.24902C21.7052 5.39847 21.8 5.60116 21.8 5.8125C21.8 6.02384 21.7052 6.22653 21.5364 6.37598C21.3676 6.52542 21.1387 6.60938 20.9 6.60938H14.9C14.6613 6.60938 14.4324 6.52542 14.2636 6.37598C14.0948 6.22653 14 6.02384 14 5.8125ZM15.2 9C15.2 8.78866 15.2948 8.58597 15.4636 8.43652C15.6324 8.28708 15.8613 8.20312 16.1 8.20312H20.9C21.1387 8.20312 21.3676 8.28708 21.5364 8.43652C21.7052 8.58597 21.8 8.78866 21.8 9C21.8 9.21134 21.7052 9.41403 21.5364 9.56348C21.3676 9.71292 21.1387 9.79688 20.9 9.79688H16.1C15.8613 9.79688 15.6324 9.71292 15.4636 9.56348C15.2948 9.41403 15.2 9.21134 15.2 9ZM16.4 12.1875C16.4 11.9762 16.4948 11.7735 16.6636 11.624C16.8324 11.4746 17.0613 11.3906 17.3 11.3906H20.9C21.1387 11.3906 21.3676 11.4746 21.5364 11.624C21.7052 11.7735 21.8 11.9762 21.8 12.1875C21.8 12.3988 21.7052 12.6015 21.5364 12.751C21.3676 12.9004 21.1387 12.9844 20.9 12.9844H17.3C17.0613 12.9844 16.8324 12.9004 16.6636 12.751C16.4948 12.6015 16.4 12.3988 16.4 12.1875ZM11.3 5.8125C11.3 6.37609 11.0471 6.91659 10.5971 7.3151C10.147 7.71362 9.53652 7.9375 8.9 7.9375C8.26348 7.9375 7.65303 7.71362 7.20294 7.3151C6.75286 6.91659 6.5 6.37609 6.5 5.8125C6.5 5.24891 6.75286 4.70841 7.20294 4.3099C7.65303 3.91138 8.26348 3.6875 8.9 3.6875C9.53652 3.6875 10.147 3.91138 10.5971 4.3099C11.0471 4.70841 11.3 5.24891 11.3 5.8125ZM8.9 14.3125C13.7 14.3125 13.7 13.3616 13.7 12.1875C13.7 11.0134 11.552 10.0625 8.9 10.0625C6.248 10.0625 4.1 11.0134 4.1 12.1875C4.1 13.3616 4.1 14.3125 8.9 14.3125Z" fill="#20C0A5"/>
</svg>
