<svg width="21" height="20" viewBox="0 0 21 20" fill="none" xmlns="http://www.w3.org/2000/svg">
<path fill-rule="evenodd" clip-rule="evenodd" d="M11.7279 0.927385C11.3768 0.650389 10.9447 0.5 10.4999 0.5C10.0551 0.5 9.62301 0.650389 9.27193 0.927385L0.888096 7.54018C0.136111 8.13553 0.550103 9.35768 1.50308 9.35768H2.50006V17.4715C2.50006 18.0095 2.71077 18.5255 3.08584 18.9059C3.4609 19.2863 3.9696 19.5 4.50002 19.5H9.49992V12.4004C9.49992 12.1314 9.60528 11.8734 9.79281 11.6832C9.98034 11.493 10.2347 11.3861 10.4999 11.3861C10.7651 11.3861 11.0195 11.493 11.207 11.6832C11.3945 11.8734 11.4999 12.1314 11.4999 12.4004V19.5H16.4998C17.0302 19.5 17.5389 19.2863 17.914 18.9059C18.289 18.5255 18.4997 18.0095 18.4997 17.4715V9.35768H19.4967C20.4487 9.35768 20.8647 8.13553 20.1117 7.54119L11.7279 0.927385Z" fill="#20C0A5"/>
</svg>
