<svg width="1362" height="349" viewBox="0 0 1362 349" fill="none" xmlns="http://www.w3.org/2000/svg">
<path d="M56.249 20.76V262H0.503017V20.76H56.249ZM85.5635 170.72C85.5635 152.029 89.0409 135.621 95.9955 121.494C103.168 107.367 112.839 96.5007 125.01 88.894C137.18 81.2873 150.764 77.484 165.76 77.484C178.582 77.484 189.775 80.092 199.338 85.308C209.118 90.524 216.616 97.37 221.832 105.846V80.092H277.578V262H221.832V236.246C216.398 244.722 208.792 251.568 199.012 256.784C189.449 262 178.256 264.608 165.434 264.608C150.655 264.608 137.18 260.805 125.01 253.198C112.839 245.374 103.168 234.399 95.9955 220.272C89.0409 205.928 85.5635 189.411 85.5635 170.72ZM221.832 171.046C221.832 157.137 217.92 146.161 210.096 138.12C202.489 130.079 193.144 126.058 182.06 126.058C170.976 126.058 161.522 130.079 153.698 138.12C146.091 145.944 142.288 156.811 142.288 170.72C142.288 184.629 146.091 195.713 153.698 203.972C161.522 212.013 170.976 216.034 182.06 216.034C193.144 216.034 202.489 212.013 210.096 203.972C217.92 195.931 221.832 184.955 221.832 171.046ZM373.653 110.41C380.173 100.413 388.323 92.5887 398.103 86.938C407.883 81.07 418.75 78.136 430.703 78.136V137.142H415.381C401.472 137.142 391.04 140.185 384.085 146.27C377.131 152.138 373.653 162.57 373.653 177.566V262H317.907V80.092H373.653V110.41ZM568.515 262L513.095 185.716V262H457.349V20.76H513.095V154.094L568.189 80.092H636.975L561.343 171.372L637.627 262H568.515ZM770.688 78.136C791.552 78.136 808.287 85.0907 820.892 99C833.498 112.692 839.8 131.6 839.8 155.724V262H784.38V163.222C784.38 151.051 781.229 141.597 774.926 134.86C768.624 128.123 760.148 124.754 749.498 124.754C738.849 124.754 730.373 128.123 724.07 134.86C717.768 141.597 714.616 151.051 714.616 163.222V262H658.87V20.76H714.616V104.542C720.267 96.5007 727.982 90.0893 737.762 85.308C747.542 80.5267 758.518 78.136 770.688 78.136ZM906.574 61.184C896.794 61.184 888.753 58.3587 882.45 52.708C876.365 46.84 873.322 39.668 873.322 31.192C873.322 22.4987 876.365 15.3267 882.45 9.67598C888.753 3.80798 896.794 0.873981 906.574 0.873981C916.137 0.873981 923.961 3.80798 930.046 9.67598C936.349 15.3267 939.5 22.4987 939.5 31.192C939.5 39.668 936.349 46.84 930.046 52.708C923.961 58.3587 916.137 61.184 906.574 61.184ZM934.284 80.092V262H878.538V80.092H934.284ZM1160.5 80.092L1046.4 348.39H986.419L1028.15 255.806L954.145 80.092H1016.41L1058.46 193.866L1100.19 80.092H1160.5ZM1169.58 170.72C1169.58 152.029 1173.05 135.621 1180.01 121.494C1187.18 107.367 1196.85 96.5007 1209.02 88.894C1221.19 81.2873 1234.78 77.484 1249.77 77.484C1262.6 77.484 1273.79 80.092 1283.35 85.308C1293.13 90.524 1300.63 97.37 1305.85 105.846V80.092H1361.59V262H1305.85V236.246C1300.41 244.722 1292.81 251.568 1283.03 256.784C1273.46 262 1262.27 264.608 1249.45 264.608C1234.67 264.608 1221.19 260.805 1209.02 253.198C1196.85 245.374 1187.18 234.399 1180.01 220.272C1173.05 205.928 1169.58 189.411 1169.58 170.72ZM1305.85 171.046C1305.85 157.137 1301.93 146.161 1294.11 138.12C1286.5 130.079 1277.16 126.058 1266.07 126.058C1254.99 126.058 1245.54 130.079 1237.71 138.12C1230.1 145.944 1226.3 156.811 1226.3 170.72C1226.3 184.629 1230.1 195.713 1237.71 203.972C1245.54 212.013 1254.99 216.034 1266.07 216.034C1277.16 216.034 1286.5 212.013 1294.11 203.972C1301.93 195.931 1305.85 184.955 1305.85 171.046Z" fill="#01EBC3"/>
</svg>
