<svg width="18" height="20" viewBox="0 0 18 20" fill="none" xmlns="http://www.w3.org/2000/svg">
<path fill-rule="evenodd" clip-rule="evenodd" d="M8.83424 0.00163002C9.96411 -0.0205931 11.087 0.184618 12.1373 0.605259C13.1876 1.0259 14.1442 1.65353 14.9511 2.45143C15.758 3.24933 16.399 4.20148 16.8367 5.25219C17.2743 6.3029 17.4998 7.43108 17.5 8.57073V14.2854C17.5 14.8537 17.2761 15.3988 16.8776 15.8007C16.4791 16.2026 15.9386 16.4284 15.375 16.4284H13.25V19.2857C13.25 19.4751 13.1754 19.6568 13.0425 19.7908C12.9097 19.9247 12.7295 20 12.5417 20H5.45832C5.27045 20 5.09029 19.9247 4.95745 19.7908C4.82461 19.6568 4.74998 19.4751 4.74998 19.2857V15.9955C3.14182 15.0591 1.88195 13.6175 1.16297 11.8909C0.443997 10.1642 0.305472 8.2477 0.768575 6.4342C1.23168 4.62071 2.27093 3.01004 3.72745 1.84842C5.18398 0.686803 6.97764 0.0381531 8.83424 0.00163002ZM4.12665 10.2994C3.71221 9.12162 3.71703 7.83511 4.14029 6.66051C4.56355 5.48592 5.37888 4.49644 6.44644 3.86176C7.514 3.22709 8.76727 2.98678 9.99131 3.18204C11.2153 3.3773 12.3339 3.99596 13.1551 4.93193C13.5716 5.4091 13.4738 6.12058 13.0063 6.54632C11.2412 8.15642 8.33415 10.2194 5.47957 10.9823C4.91573 11.1337 4.32215 10.8523 4.12665 10.2994Z" fill="#20C0A5"/>
</svg>
