<svg width="21" height="18" viewBox="0 0 21 18" fill="none" xmlns="http://www.w3.org/2000/svg">
<path d="M18.464 3.5C18.7597 3.50011 19.0519 3.56347 19.3202 3.68567C19.5885 3.80787 19.8265 3.98598 20.0176 4.20762C20.2088 4.42926 20.3484 4.68911 20.4269 4.96911C20.5054 5.24911 20.5209 5.54254 20.4723 5.829L18.7756 15.829C18.6963 16.296 18.4508 16.7202 18.0829 17.0262C17.715 17.3322 17.2484 17.5001 16.7663 17.5H4.23374C3.75158 17.5001 3.28504 17.3322 2.91711 17.0262C2.54919 16.7202 2.30373 16.296 2.22442 15.829L0.527747 5.829C0.479094 5.54254 0.49456 5.24911 0.573069 4.96911C0.651579 4.68911 0.791248 4.42926 0.982369 4.20762C1.17349 3.98598 1.41148 3.80787 1.67978 3.68567C1.94809 3.56347 2.24028 3.50011 2.53605 3.5H18.464ZM16.6105 0.5C16.8805 0.5 17.1396 0.605357 17.3306 0.792893C17.5216 0.98043 17.6289 1.23478 17.6289 1.5C17.6289 1.76522 17.5216 2.01957 17.3306 2.20711C17.1396 2.39464 16.8805 2.5 16.6105 2.5H4.38955C4.11945 2.5 3.86042 2.39464 3.66943 2.20711C3.47844 2.01957 3.37114 1.76522 3.37114 1.5C3.37114 1.23478 3.47844 0.98043 3.66943 0.792893C3.86042 0.605357 4.11945 0.5 4.38955 0.5H16.6105Z" fill="#20C0A5"/>
</svg>
