<svg width="24" height="24" viewBox="0 0 24 24" fill="none" xmlns="http://www.w3.org/2000/svg">
<path d="M12 13.5692C12.8667 13.5692 13.5692 12.8667 13.5692 12C13.5692 11.1333 12.8667 10.4308 12 10.4308C11.1333 10.4308 10.4308 11.1333 10.4308 12C10.4308 12.8667 11.1333 13.5692 12 13.5692Z" fill="#D54B1A"/>
<path d="M12 0C5.37261 0 0 5.37261 0 12C0 18.6274 5.37261 24 12 24C18.6274 24 24 18.6274 24 12C24 5.37261 18.6274 0 12 0ZM7.42459 2.98449C8.79821 2.28619 10.3531 1.89236 12 1.89236C12.0967 1.89236 12.1926 1.89366 12.2884 1.89627C12.4476 1.9006 12.5569 2.29616 12.5331 2.77457L12.4107 5.23685C12.3869 5.71526 12.2854 6.09824 12.1839 6.0952C12.1227 6.09347 12.0616 6.0926 12 6.0926C11.1338 6.0926 10.3111 6.2791 9.56981 6.61394C9.13305 6.81129 8.6104 6.69375 8.36665 6.28127L7.11056 4.1573C6.86681 3.74482 6.99736 3.20179 7.42459 2.98449ZM6.9336 7.50136L5.07811 5.87834C4.71724 5.56302 4.67994 5.01348 5.02649 4.68298C5.03473 4.67517 5.04254 4.6678 5.05122 4.65999C5.39907 4.33036 5.94427 4.39759 6.23833 4.77536L7.75379 6.72021C8.04829 7.09799 8.11682 7.53952 7.92337 7.72386C7.7295 7.90906 7.29447 7.81668 6.9336 7.50136ZM7.75379 12C7.75379 9.65482 9.65482 7.75379 12 7.75379C14.3452 7.75379 16.2462 9.65482 16.2462 12C16.2462 14.3452 14.3452 16.2462 12 16.2462C9.65482 16.2462 7.75379 14.3452 7.75379 12ZM16.5555 21.0255C15.1866 21.7177 13.6386 22.1076 12 22.1076C11.8924 22.1076 11.7853 22.1059 11.6786 22.1029C11.5012 22.0972 11.3785 21.6999 11.4045 21.2215L11.5389 18.7597C11.5654 18.2813 11.6786 17.9005 11.7931 17.9044C11.8616 17.9065 11.9306 17.9078 12 17.9078C12.7955 17.9078 13.5536 17.7508 14.2463 17.4663C14.6896 17.2841 15.233 17.4038 15.4941 17.8055L16.8391 19.8744C17.1002 20.2756 16.9831 20.8091 16.5555 21.0255ZM18.9189 19.3686C18.5866 19.6809 18.0492 19.6076 17.7465 19.2363L16.1894 17.3249C15.8867 16.9536 15.8094 16.5234 16.0007 16.3468C16.1924 16.1703 16.6266 16.2692 16.987 16.585L18.8434 18.2088C19.2043 18.5242 19.2515 19.0563 18.9189 19.3686Z" fill="#D54B1A"/>
</svg>
