<svg width="42" height="42" viewBox="0 0 42 42" fill="none" xmlns="http://www.w3.org/2000/svg">
<path d="M15.8579 12.5502C15.6957 12.7121 15.567 12.9044 15.4792 13.1161C15.3913 13.3278 15.3461 13.5548 15.3461 13.784C15.3461 14.0132 15.3913 14.2401 15.4792 14.4518C15.567 14.6635 15.6957 14.8558 15.8579 15.0177L22.6479 21.8077L15.8579 28.5977C15.5307 28.9249 15.3469 29.3687 15.3469 29.8315C15.3469 30.2942 15.5307 30.738 15.8579 31.0652C16.1851 31.3924 16.6289 31.5763 17.0917 31.5763C17.5544 31.5763 17.9982 31.3924 18.3254 31.0652L26.3579 23.0327C26.5201 22.8708 26.6488 22.6785 26.7367 22.4668C26.8245 22.2551 26.8697 22.0282 26.8697 21.799C26.8697 21.5698 26.8245 21.3428 26.7367 21.1311C26.6488 20.9194 26.5201 20.7271 26.3579 20.5652L18.3254 12.5327C17.6604 11.8677 16.5404 11.8677 15.8579 12.5502Z" fill="#1A1A1A"/>
</svg>
